<svg width="326" height="71" viewBox="0 0 326 71" fill="none" xmlns="http://www.w3.org/2000/svg">
<path d="M19.8359 44.9922C21.2161 44.9922 22.4401 44.7318 23.5078 44.2109C24.5755 43.6641 25.4089 42.9089 26.0078 41.9453C26.6328 40.9557 26.9583 39.7969 26.9844 38.4688H37.5703C37.5443 41.4375 36.75 44.0807 35.1875 46.3984C33.625 48.6901 31.5286 50.5 28.8984 51.8281C26.2682 53.1302 23.3255 53.7812 20.0703 53.7812C16.7891 53.7812 13.9245 53.2344 11.4766 52.1406C9.05469 51.0469 7.03646 49.5365 5.42188 47.6094C3.80729 45.6562 2.59635 43.3906 1.78906 40.8125C0.981771 38.2083 0.578125 35.4219 0.578125 32.4531V31.3203C0.578125 28.3255 0.981771 25.5391 1.78906 22.9609C2.59635 20.3568 3.80729 18.0911 5.42188 16.1641C7.03646 14.2109 9.05469 12.6875 11.4766 11.5938C13.8984 10.5 16.737 9.95312 19.9922 9.95312C23.4557 9.95312 26.4896 10.6172 29.0938 11.9453C31.724 13.2734 33.7812 15.1745 35.2656 17.6484C36.776 20.0964 37.5443 23 37.5703 26.3594H26.9844C26.9583 24.9531 26.6589 23.6771 26.0859 22.5312C25.5391 21.3854 24.7318 20.474 23.6641 19.7969C22.6224 19.0938 21.3333 18.7422 19.7969 18.7422C18.1562 18.7422 16.8151 19.0938 15.7734 19.7969C14.7318 20.474 13.9245 21.4115 13.3516 22.6094C12.7786 23.7812 12.375 25.1224 12.1406 26.6328C11.9323 28.1172 11.8281 29.6797 11.8281 31.3203V32.4531C11.8281 34.0938 11.9323 35.6693 12.1406 37.1797C12.349 38.6901 12.7396 40.0312 13.3125 41.2031C13.9115 42.375 14.7318 43.2995 15.7734 43.9766C16.8151 44.6536 18.1693 44.9922 19.8359 44.9922ZM66.9062 43.4688V24.6406C66.9062 23.2865 66.6849 22.1276 66.2422 21.1641C65.7995 20.1745 65.1094 19.4062 64.1719 18.8594C63.2604 18.3125 62.0755 18.0391 60.6172 18.0391C59.3672 18.0391 58.2865 18.2604 57.375 18.7031C56.4635 19.1198 55.7604 19.7318 55.2656 20.5391C54.7708 21.3203 54.5234 22.2448 54.5234 23.3125H43.2734C43.2734 21.5156 43.6901 19.8099 44.5234 18.1953C45.3568 16.5807 46.5677 15.1615 48.1562 13.9375C49.7448 12.6875 51.6328 11.7109 53.8203 11.0078C56.0339 10.3047 58.5078 9.95312 61.2422 9.95312C64.5234 9.95312 67.4401 10.5 69.9922 11.5938C72.5443 12.6875 74.5495 14.3281 76.0078 16.5156C77.4922 18.7031 78.2344 21.4375 78.2344 24.7188V42.8047C78.2344 45.1224 78.3776 47.0234 78.6641 48.5078C78.9505 49.9661 79.3672 51.2422 79.9141 52.3359V53H68.5469C68 51.8542 67.5833 50.4219 67.2969 48.7031C67.0365 46.9583 66.9062 45.2135 66.9062 43.4688ZM68.3906 27.2578L68.4688 33.625H62.1797C60.6953 33.625 59.4062 33.7943 58.3125 34.1328C57.2188 34.4714 56.3203 34.9531 55.6172 35.5781C54.9141 36.1771 54.3932 36.8802 54.0547 37.6875C53.7422 38.4948 53.5859 39.3802 53.5859 40.3438C53.5859 41.3073 53.8073 42.1797 54.25 42.9609C54.6927 43.7161 55.3307 44.3151 56.1641 44.7578C56.9974 45.1745 57.974 45.3828 59.0938 45.3828C60.7865 45.3828 62.2578 45.0443 63.5078 44.3672C64.7578 43.6901 65.7214 42.8568 66.3984 41.8672C67.1016 40.8776 67.4661 39.9401 67.4922 39.0547L70.4609 43.8203C70.0443 44.888 69.4714 45.9948 68.7422 47.1406C68.0391 48.2865 67.1406 49.3672 66.0469 50.3828C64.9531 51.3724 63.638 52.1927 62.1016 52.8438C60.5651 53.4688 58.7422 53.7812 56.6328 53.7812C53.9505 53.7812 51.5156 53.2474 49.3281 52.1797C47.1667 51.0859 45.4479 49.5885 44.1719 47.6875C42.9219 45.7604 42.2969 43.5729 42.2969 41.125C42.2969 38.9115 42.7135 36.9453 43.5469 35.2266C44.3802 33.5078 45.6042 32.0625 47.2188 30.8906C48.8594 29.6927 50.9036 28.7943 53.3516 28.1953C55.7995 27.5703 58.638 27.2578 61.8672 27.2578H68.3906ZM107.609 10.7344V18.7031H83V10.7344H107.609ZM89.0938 0.304688H100.344V40.2656C100.344 41.4896 100.5 42.4271 100.812 43.0781C101.151 43.7292 101.646 44.1849 102.297 44.4453C102.948 44.6797 103.768 44.7969 104.758 44.7969C105.461 44.7969 106.086 44.7708 106.633 44.7188C107.206 44.6406 107.688 44.5625 108.078 44.4844L108.117 52.7656C107.154 53.0781 106.112 53.3255 104.992 53.5078C103.872 53.6901 102.635 53.7812 101.281 53.7812C98.8073 53.7812 96.6458 53.3776 94.7969 52.5703C92.974 51.737 91.5677 50.4089 90.5781 48.5859C89.5885 46.763 89.0938 44.3672 89.0938 41.3984V0.304688ZM147.648 44.2109V53H115.539V44.2109H147.648ZM147.023 17.2188L120.07 53H112.531V46.3203L139.367 10.7344H147.023V17.2188ZM143.039 10.7344V19.5625H113.156V10.7344H143.039ZM177.531 43.4688V24.6406C177.531 23.2865 177.31 22.1276 176.867 21.1641C176.424 20.1745 175.734 19.4062 174.797 18.8594C173.885 18.3125 172.701 18.0391 171.242 18.0391C169.992 18.0391 168.911 18.2604 168 18.7031C167.089 19.1198 166.385 19.7318 165.891 20.5391C165.396 21.3203 165.148 22.2448 165.148 23.3125H153.898C153.898 21.5156 154.315 19.8099 155.148 18.1953C155.982 16.5807 157.193 15.1615 158.781 13.9375C160.37 12.6875 162.258 11.7109 164.445 11.0078C166.659 10.3047 169.133 9.95312 171.867 9.95312C175.148 9.95312 178.065 10.5 180.617 11.5938C183.169 12.6875 185.174 14.3281 186.633 16.5156C188.117 18.7031 188.859 21.4375 188.859 24.7188V42.8047C188.859 45.1224 189.003 47.0234 189.289 48.5078C189.576 49.9661 189.992 51.2422 190.539 52.3359V53H179.172C178.625 51.8542 178.208 50.4219 177.922 48.7031C177.661 46.9583 177.531 45.2135 177.531 43.4688ZM179.016 27.2578L179.094 33.625H172.805C171.32 33.625 170.031 33.7943 168.938 34.1328C167.844 34.4714 166.945 34.9531 166.242 35.5781C165.539 36.1771 165.018 36.8802 164.68 37.6875C164.367 38.4948 164.211 39.3802 164.211 40.3438C164.211 41.3073 164.432 42.1797 164.875 42.9609C165.318 43.7161 165.956 44.3151 166.789 44.7578C167.622 45.1745 168.599 45.3828 169.719 45.3828C171.411 45.3828 172.883 45.0443 174.133 44.3672C175.383 43.6901 176.346 42.8568 177.023 41.8672C177.727 40.8776 178.091 39.9401 178.117 39.0547L181.086 43.8203C180.669 44.888 180.096 45.9948 179.367 47.1406C178.664 48.2865 177.766 49.3672 176.672 50.3828C175.578 51.3724 174.263 52.1927 172.727 52.8438C171.19 53.4688 169.367 53.7812 167.258 53.7812C164.576 53.7812 162.141 53.2474 159.953 52.1797C157.792 51.0859 156.073 49.5885 154.797 47.6875C153.547 45.7604 152.922 43.5729 152.922 41.125C152.922 38.9115 153.339 36.9453 154.172 35.2266C155.005 33.5078 156.229 32.0625 157.844 30.8906C159.484 29.6927 161.529 28.7943 163.977 28.1953C166.424 27.5703 169.263 27.2578 172.492 27.2578H179.016ZM198.078 47.5703C198.078 45.9036 198.651 44.5104 199.797 43.3906C200.969 42.2708 202.518 41.7109 204.445 41.7109C206.372 41.7109 207.909 42.2708 209.055 43.3906C210.227 44.5104 210.812 45.9036 210.812 47.5703C210.812 49.237 210.227 50.6302 209.055 51.75C207.909 52.8698 206.372 53.4297 204.445 53.4297C202.518 53.4297 200.969 52.8698 199.797 51.75C198.651 50.6302 198.078 49.237 198.078 47.5703ZM231.984 19.4844V53H220.695V10.7344H231.281L231.984 19.4844ZM230.422 30.3828H227.297C227.297 27.4401 227.648 24.7318 228.352 22.2578C229.081 19.7578 230.135 17.5964 231.516 15.7734C232.922 13.9245 234.654 12.4922 236.711 11.4766C238.768 10.4609 241.151 9.95312 243.859 9.95312C245.734 9.95312 247.453 10.2396 249.016 10.8125C250.578 11.3594 251.919 12.2318 253.039 13.4297C254.185 14.6016 255.07 16.138 255.695 18.0391C256.32 19.9141 256.633 22.1667 256.633 24.7969V53H245.383V26.0469C245.383 24.1198 245.122 22.6354 244.602 21.5938C244.081 20.5521 243.339 19.8229 242.375 19.4062C241.438 18.9896 240.305 18.7812 238.977 18.7812C237.518 18.7812 236.242 19.0807 235.148 19.6797C234.081 20.2786 233.195 21.112 232.492 22.1797C231.789 23.2214 231.268 24.4453 230.93 25.8516C230.591 27.2578 230.422 28.7682 230.422 30.3828ZM255.578 29.0938L251.555 29.6016C251.555 26.8411 251.893 24.276 252.57 21.9062C253.273 19.5365 254.302 17.4531 255.656 15.6562C257.036 13.8594 258.742 12.4661 260.773 11.4766C262.805 10.4609 265.148 9.95312 267.805 9.95312C269.836 9.95312 271.685 10.2526 273.352 10.8516C275.018 11.4245 276.438 12.349 277.609 13.625C278.807 14.875 279.719 16.5156 280.344 18.5469C280.995 20.5781 281.32 23.0651 281.32 26.0078V53H270.031V26.0078C270.031 24.0547 269.771 22.5703 269.25 21.5547C268.755 20.513 268.026 19.7969 267.062 19.4062C266.125 18.9896 265.005 18.7812 263.703 18.7812C262.349 18.7812 261.164 19.0547 260.148 19.6016C259.133 20.1224 258.286 20.8516 257.609 21.7891C256.932 22.7266 256.424 23.8203 256.086 25.0703C255.747 26.2943 255.578 27.6354 255.578 29.0938ZM302.57 48.2344L313.781 10.7344H325.852L308.859 59.3672C308.495 60.4349 308 61.5807 307.375 62.8047C306.776 64.0286 305.956 65.1875 304.914 66.2812C303.898 67.401 302.609 68.3125 301.047 69.0156C299.51 69.7188 297.622 70.0703 295.383 70.0703C294.315 70.0703 293.443 70.0052 292.766 69.875C292.089 69.7448 291.281 69.5625 290.344 69.3281V61.0859C290.63 61.0859 290.93 61.0859 291.242 61.0859C291.555 61.112 291.854 61.125 292.141 61.125C293.625 61.125 294.836 60.9557 295.773 60.6172C296.711 60.2786 297.466 59.7578 298.039 59.0547C298.612 58.3776 299.068 57.4922 299.406 56.3984L302.57 48.2344ZM297.883 10.7344L307.062 41.3594L308.664 53.2734L301.008 54.0938L285.812 10.7344H297.883Z" fill="black"/>
</svg>
