<svg id="Layer_1" data-name="Layer 1" xmlns="http://www.w3.org/2000/svg" viewBox="0 0 924 284"><defs><style>.cls-1{fill:#2d2d2d;}</style></defs><path class="cls-1" d="M137.63,21.9,105.47,140.65,68.63,21.9H10.23L72.38,180.28l3.25,8.25a21.69,21.69,0,0,1,.84,6.26c0,.28,0,.55,0,.83a23.29,23.29,0,0,1-3.71,11.95c-.15.22-.28.46-.42.68a29.06,29.06,0,0,1-8.28,7.83,30.58,30.58,0,0,1-3.53,2,25.78,25.78,0,0,1-28.09-5.66l-.47,1.8L20.7,258.08c15.62,14.35,41.83,12.56,41.83,12.56,53.43-4.58,71.25-68.74,71.25-68.74l61.59-180Z"/><path class="cls-1" d="M380.46,108.29c0-28.24-7.82-50.84-23.9-67.36s-38.24-24.77-66.92-24.77c-27.38,0-49.55,7.83-66.49,23.91-17,15.64-25.21,37.37-25.21,64.75,0,27.81,8.69,49.54,26.51,65.18S265.3,193.47,294,193.47a102.29,102.29,0,0,0,53.89-14.78c12.6-7.82,21.72-18.25,26.94-31.72l-53-10.87c-6.08,10.43-15.64,15.22-28.24,15.22-24.78,0-36.94-12.17-36.94-36.51H380.46Zm-123-27.81c1.74-8.26,6.08-15.38,12.16-19.73,6.52-4.78,13.91-7,23-7a36.38,36.38,0,0,1,21.73,7.39A31.61,31.61,0,0,1,325.7,80.48Z"/><path class="cls-1" d="M549,22.23H390.66V66h70.79L382.53,184.48H543.47V140.6H470.41Z"/><path class="cls-1" d="M717,22.23H559.17V66H630L551,184.48H711.5V140.6H638.44Z"/><path class="cls-1" d="M851.19,21.91V37.79c-12.11-14.17-28.88-21.26-50.5-21.26q-35.52,0-58.57,25.38c-15.33,17-23,37.32-23,61.27s7.8,44.4,23.32,61.44,35.25,25.56,58.93,25.56a69.81,69.81,0,0,0,28.62-5.92,45.12,45.12,0,0,0,20.63-17.58h.62V184.8H909V21.91ZM843,129.73c-6.64,6.81-15.7,10.31-27.09,10.31s-20.54-3.5-27.18-10.31-10-15.61-10-26.2c0-10.4,3.32-19.1,10-26.28s15.7-10.58,27.18-10.58,20.45,3.5,27.09,10.58,10.05,15.88,10.05,26.28C853.08,114.12,849.76,122.82,843,129.73Z"/></svg>